<?xml version="1.0" encoding="utf-8"?>
<!-- Generator: Adobe Illustrator 17.1.0, SVG Export Plug-In . SVG Version: 6.00 Build 0)  -->
<!DOCTYPE svg PUBLIC "-//W3C//DTD SVG 1.1//EN" "http://www.w3.org/Graphics/SVG/1.1/DTD/svg11.dtd">
<svg version="1.1" id="Layer_1" xmlns="http://www.w3.org/2000/svg" xmlns:xlink="http://www.w3.org/1999/xlink" x="0px" y="0px"
	 viewBox="0 0 510.603 130.394" style="enable-background:new 0 0 510.603 130.394;" xml:space="preserve">
<style type="text/css">
	.Drop_x0020_Shadow{fill:none;}
	.Round_x0020_Corners_x0020_2_x0020_pt{fill:#FFFFFF;stroke:#000000;stroke-miterlimit:10;}
	.Live_x0020_Reflect_x0020_X{fill:none;}
	.Bevel_x0020_Soft{fill:url(#SVGID_1_);}
	.Dusk{fill:#FFFFFF;}
	.Foliage_GS{fill:#FFDD00;}
	.Pompadour_GS{fill-rule:evenodd;clip-rule:evenodd;fill:#44ADE2;}
	.st0{fill:#FFFFFF;}
</style>
<linearGradient id="SVGID_1_" gradientUnits="userSpaceOnUse" x1="0" y1="0" x2="0.7071" y2="0.7071">
	<stop  offset="0" style="stop-color:#DEDFE3"/>
	<stop  offset="0.1738" style="stop-color:#D8D9DD"/>
	<stop  offset="0.352" style="stop-color:#C9CACD"/>
	<stop  offset="0.5323" style="stop-color:#B4B5B8"/>
	<stop  offset="0.7139" style="stop-color:#989A9C"/>
	<stop  offset="0.8949" style="stop-color:#797C7E"/>
	<stop  offset="1" style="stop-color:#656B6C"/>
</linearGradient>
<g>
	<path class="st0" d="M123.037,25.857c-21.572,0-39.059,17.335-39.059,38.72c0,21.385,17.487,38.725,39.059,38.725
		c21.573,0,39.061-17.34,39.061-38.725C162.098,43.192,144.61,25.857,123.037,25.857z M123.039,92.634
		c-15.634,0-28.306-12.558-28.306-28.057c0-15.496,12.672-28.057,28.306-28.057c15.629,0,28.303,12.56,28.303,28.057
		C151.342,80.077,138.668,92.634,123.039,92.634z"/>
	<path class="st0" d="M39.064,37.136c8.514,0,16.148,3.736,21.332,9.632h13.029c-6.608-12.088-19.52-20.29-34.361-20.29
		C17.492,26.478,0,43.814,0,65.195c0,21.386,17.492,38.725,39.064,38.725c14.841,0,27.753-8.211,34.361-20.296H60.396
		c-5.184,5.899-12.818,9.633-21.332,9.633c-15.632,0-28.303-12.561-28.303-28.062C10.761,49.702,23.432,37.136,39.064,37.136z"/>
	<path class="st0" d="M248.228,11.707h-10.592v26.619c-7.135-7.663-17.355-12.469-28.705-12.469
		c-21.572,0-39.063,17.335-39.063,38.72c0,21.385,17.492,38.725,39.063,38.725c20.694,0,37.047-16.335,39.248-36.313
		c1.481-13.42,0.092-27.813,0.033-41.31C248.194,21.019,248.228,16.359,248.228,11.707z M208.931,92.634
		c-15.634,0-28.305-12.558-28.305-28.057c0-15.496,12.672-28.057,28.305-28.057c15.633,0,28.304,12.56,28.304,28.057
		C237.234,80.077,224.563,92.634,208.931,92.634z"/>
	<path class="st0" d="M382.012,26.478c-21.572,0-39.06,17.336-39.06,38.717c0,21.386,17.489,38.725,39.06,38.725
		c0.074,0,0.152-0.004,0.227-0.009l-19.226,19.059l7.492,7.424c11.379-11.279,22.952-22.376,34.548-33.431
		c9.252-8.819,16.023-18.504,16.023-31.768C421.076,43.814,403.586,26.478,382.012,26.478z M382.012,93.257
		c-15.633,0-28.301-12.561-28.301-28.062c0-15.493,12.669-28.059,28.301-28.059c15.636,0,28.308,12.565,28.308,28.059
		C410.32,80.696,397.648,93.257,382.012,93.257z"/>
	<path class="st0" d="M468.34,26.478c-0.077,0-0.153,0-0.227,0.003l19.222-19.06L479.846,0
		c-11.379,11.279-22.952,22.37-34.549,33.429c-9.251,8.823-16.022,18.506-16.022,31.77c0,21.382,17.491,38.721,39.065,38.721
		c21.571,0,39.061-17.339,39.061-38.721C507.402,43.811,489.911,26.478,468.34,26.478z M468.34,93.257
		c-15.638,0-28.31-12.565-28.31-28.058c0-15.497,12.672-28.058,28.31-28.058c15.63,0,28.303,12.561,28.303,28.058
		C496.643,80.692,483.97,93.257,468.34,93.257z"/>
	<path class="st0" d="M295.69,26.478c-21.574,0-39.061,17.336-39.061,38.717c0,21.386,17.488,38.725,39.061,38.725
		c14.843,0,27.753-8.211,34.36-20.296h-13.025c-5.191,5.894-12.82,9.633-21.335,9.633c-14.04,0-25.658-10.142-27.885-23.431h55.799
		h2.385h8.474c0.179-1.519,0.287-3.063,0.287-4.631C334.75,43.814,317.26,26.478,295.69,26.478z M268.017,59.327
		c2.724-12.678,14.071-22.191,27.673-22.191c13.602,0,24.949,9.513,27.674,22.191H268.017z"/>
</g>
</svg>
