<?xml version="1.0" encoding="utf-8"?>
<!-- Generator: Adobe Illustrator 17.0.1, SVG Export Plug-In . SVG Version: 6.00 Build 0)  -->
<!DOCTYPE svg PUBLIC "-//W3C//DTD SVG 1.1//EN" "http://www.w3.org/Graphics/SVG/1.1/DTD/svg11.dtd">
<svg version="1.1" id="Layer_1" xmlns="http://www.w3.org/2000/svg" xmlns:xlink="http://www.w3.org/1999/xlink" x="0px" y="0px"
	 width="16.388px" height="35.527px" viewBox="0 0 16.388 35.527" enable-background="new 0 0 16.388 35.527" xml:space="preserve">
<g opacity="0.2">
	<path fill="#FFFFFF" d="M10.888,11.602c1.844,0,3.645,0,5.501,0c-0.178,2.011-0.352,3.984-0.532,6.013c-1.648,0-3.287,0-4.97,0
		c0,5.987,0,11.917,0,17.88c-0.182,0.009-0.321,0.023-0.46,0.023c-2.094,0.001-4.189-0.01-6.283,0.011
		c-0.396,0.004-0.47-0.126-0.469-0.49c0.011-5.565,0.008-11.131,0.008-16.696c0-0.186,0-0.372,0-0.607c-1.229,0-2.44,0-3.683,0
		c0-2.05,0-4.05,0-6.099c1.193,0,2.403,0,3.683,0c0-0.197,0-0.346,0-0.496c0-1.506-0.017-3.012,0.006-4.518
		C3.706,5.53,3.865,4.454,4.328,3.447C5.196,1.552,6.789,0.632,8.74,0.266c0.881-0.165,1.789-0.225,2.687-0.246
		c1.632-0.038,3.266-0.011,4.934-0.011c0,2.089,0,4.144,0,6.258c-0.152,0-0.304,0-0.456,0c-1.162,0-2.324-0.006-3.486,0.002
		c-1.064,0.007-1.519,0.458-1.528,1.524C10.88,9.051,10.888,10.31,10.888,11.602z"/>
</g>
</svg>
