<?xml version="1.0" encoding="utf-8"?>
<!-- Generator: Adobe Illustrator 17.0.1, SVG Export Plug-In . SVG Version: 6.00 Build 0)  -->
<!DOCTYPE svg PUBLIC "-//W3C//DTD SVG 1.1//EN" "http://www.w3.org/Graphics/SVG/1.1/DTD/svg11.dtd">
<svg version="1.1" id="Layer_1" xmlns="http://www.w3.org/2000/svg" xmlns:xlink="http://www.w3.org/1999/xlink" x="0px" y="0px"
	 width="39.575px" height="35.527px" viewBox="0 0 39.575 35.527" enable-background="new 0 0 39.575 35.527" xml:space="preserve">
<g opacity="0.2">
	<path fill="#FFFFFF" d="M19.632,3.371c1.006,1.401,1.492,2.908,1.608,4.562c0.177,2.526-0.808,4.551-2.612,6.234
		c-0.44,0.411-0.928,0.77-1.381,1.169c-0.231,0.203-0.454,0.423-0.642,0.666c-0.419,0.541-0.465,1.109-0.005,1.602
		c0.699,0.748,1.441,1.466,2.233,2.114c0.914,0.748,1.843,1.468,2.519,2.452c1.934,2.814,2.242,7.843-1.617,10.812
		c-1.948,1.499-4.165,2.252-6.588,2.463c-2.884,0.25-5.705-0.043-8.381-1.178c-0.948-0.402-1.871-0.947-2.671-1.592
		c-2.113-1.705-2.643-4.188-1.518-6.666c1.02-2.246,2.804-3.698,4.999-4.694c1.778-0.807,3.658-1.159,5.672-1.171
		c-0.532-1.006-0.659-2.045-0.436-3.054c-0.996-0.222-1.988-0.368-2.93-0.668C4.789,15.435,2.571,12.54,2.32,9.309
		c-0.256-3.282,1.336-5.604,3.863-7.4c1.765-1.254,3.772-1.891,5.952-1.898C15.61,0.001,19.084,0.01,22.558,0
		c0.445-0.001,0.786,0.132,0.95,0.559c0.15,0.39-0.009,0.74-0.437,1.05c-0.453,0.328-0.91,0.65-1.359,0.983
		C21.1,3.046,20.526,3.592,19.632,3.371z M11.775,32.195c0.557-0.039,1.117-0.053,1.671-0.123c1.249-0.158,2.46-0.45,3.475-1.254
		c1.545-1.223,1.944-3.781,0.776-5.188c-0.886-1.067-2.098-1.737-3.239-2.488c-0.07-0.046-0.165-0.059-0.25-0.08
		c-2.21-0.545-4.317-0.267-6.297,0.85c-1.035,0.583-1.924,1.361-2.274,2.534c-0.485,1.624,0.087,2.986,1.293,4.087
		C8.295,31.777,9.965,32.195,11.775,32.195z M15.898,9.603c-0.152-2.131-0.893-3.979-2.523-5.406
		c-0.619-0.542-1.331-0.929-2.162-1.008C9.684,3.045,8.54,3.808,7.992,5.362c-0.647,1.834-0.379,3.623,0.403,5.35
		c0.614,1.357,1.503,2.493,2.877,3.164c1.587,0.775,3.12,0.283,3.981-1.261C15.778,11.675,15.91,10.651,15.898,9.603z"/>
	<path fill="#FFFFFF" d="M29.41,14.413c0-0.203,0-0.362,0-0.52c0-1.707-0.002-3.414,0.001-5.122
		c0.001-0.882,0.276-1.149,1.169-1.151c0.368-0.001,0.736-0.002,1.104,0c0.794,0.005,1.104,0.308,1.105,1.093
		c0.003,1.722,0.001,3.444,0.001,5.166c0,0.159,0,0.319,0,0.534c0.19,0,0.346,0,0.502,0c1.722,0,3.444-0.001,5.166,0
		c0.825,0,1.106,0.283,1.112,1.118c0.003,0.427,0.011,0.854-0.003,1.28c-0.021,0.67-0.319,0.957-0.989,0.958
		c-1.751,0.003-3.503,0.001-5.254,0.001c-0.159,0-0.318,0-0.535,0c0,0.193,0,0.349,0,0.505c0,1.722,0.001,3.444,0,5.166
		c-0.001,0.853-0.278,1.124-1.141,1.125c-0.412,0-0.824,0.001-1.236,0c-0.698-0.003-0.995-0.283-0.999-0.989
		c-0.009-1.737-0.003-3.473-0.003-5.21c0-0.187,0-0.374,0-0.596c-1.013,0-1.967,0-2.922,0c-0.957,0-1.913,0.002-2.87-0.001
		c-0.706-0.002-0.976-0.276-0.982-0.994c-0.004-0.471-0.006-0.942,0.001-1.413c0.009-0.634,0.316-0.946,0.952-0.948
		c1.766-0.006,3.532-0.002,5.298-0.002C29.046,14.413,29.204,14.413,29.41,14.413z"/>
</g>
</svg>
