<?xml version="1.0" encoding="utf-8"?>
<!-- Generator: Adobe Illustrator 17.0.1, SVG Export Plug-In . SVG Version: 6.00 Build 0)  -->
<!DOCTYPE svg PUBLIC "-//W3C//DTD SVG 1.1//EN" "http://www.w3.org/Graphics/SVG/1.1/DTD/svg11.dtd">
<svg version="1.1" id="Layer_1" xmlns="http://www.w3.org/2000/svg" xmlns:xlink="http://www.w3.org/1999/xlink" x="0px" y="0px"
	 width="43.537px" height="35.525px" viewBox="0 0 43.537 35.525" enable-background="new 0 0 43.537 35.525" xml:space="preserve">
<g id="xXErf1.tif" opacity="0.2">
	<g>
		<path fill="#FFFFFF" d="M29.554,0c0.396,0,0.793,0,1.189,0c0.063,0.012,0.125,0.029,0.188,0.035
			c2.161,0.194,4.012,1.056,5.552,2.581c0.16,0.159,0.304,0.203,0.523,0.155c1.799-0.398,3.501-1.046,5.105-1.953
			c0.067-0.038,0.14-0.064,0.21-0.096c0.013,0.017,0.026,0.034,0.04,0.051c-0.697,2.027-1.966,3.612-3.764,4.798
			c1.716-0.193,3.352-0.652,4.941-1.313c-0.028,0.085-0.067,0.149-0.11,0.211c-1.131,1.625-2.485,3.034-4.075,4.215
			c-0.156,0.116-0.211,0.241-0.214,0.433c-0.018,1.016-0.007,2.035-0.088,3.046c-0.176,2.19-0.659,4.32-1.401,6.389
			c-1.392,3.878-3.523,7.283-6.496,10.15c-1.655,1.596-3.499,2.928-5.534,3.993c-3.612,1.892-7.48,2.752-11.537,2.827
			c-1.145,0.021-2.287-0.043-3.425-0.176c-3.77-0.442-7.261-1.677-10.485-3.676C0.112,31.632,0.057,31.588,0,31.547
			c2.355,0.213,4.653,0.031,6.914-0.603c2.258-0.633,4.313-1.668,6.174-3.111c-0.036-0.031-0.045-0.045-0.055-0.046
			c-0.229-0.021-0.46-0.029-0.687-0.061c-3.632-0.521-6.118-2.494-7.463-5.905c-0.091-0.231-0.062-0.265,0.178-0.226
			c1.144,0.19,2.28,0.145,3.41-0.109c0.076-0.017,0.149-0.043,0.224-0.065c-0.071-0.064-0.137-0.083-0.203-0.1
			c-2.455-0.635-4.341-2.036-5.631-4.219c-0.79-1.338-1.191-2.792-1.2-4.35c-0.001-0.226,0.027-0.239,0.227-0.137
			c1.025,0.524,2.11,0.846,3.256,0.96c0.148,0.015,0.297,0.018,0.445,0.027c0.008-0.016,0.015-0.031,0.023-0.047
			c-1.897-1.353-3.155-3.144-3.661-5.417C1.445,5.873,1.766,3.716,2.907,1.683c0.053,0.02,0.074,0.022,0.087,0.033
			c0.032,0.03,0.062,0.064,0.091,0.098c0.987,1.188,2.071,2.28,3.256,3.271c2.731,2.283,5.801,3.933,9.218,4.934
			c1.836,0.538,3.71,0.858,5.619,0.98c0.205,0.013,0.227-0.012,0.184-0.232c-0.324-1.691-0.235-3.358,0.401-4.962
			c1.17-2.947,3.309-4.814,6.392-5.577C28.612,0.115,29.087,0.074,29.554,0z"/>
	</g>
</g>
</svg>
