<?xml version="1.0" encoding="utf-8"?>
<!-- Generator: Adobe Illustrator 17.0.1, SVG Export Plug-In . SVG Version: 6.00 Build 0)  -->
<!DOCTYPE svg PUBLIC "-//W3C//DTD SVG 1.1//EN" "http://www.w3.org/Graphics/SVG/1.1/DTD/svg11.dtd">
<svg version="1.1" id="Layer_1" xmlns="http://www.w3.org/2000/svg" xmlns:xlink="http://www.w3.org/1999/xlink" x="0px" y="0px"
	 width="30.836px" height="35.527px" viewBox="0 0 30.836 35.527" enable-background="new 0 0 30.836 35.527" xml:space="preserve">
<g opacity="0.2">
	<path fill="#FFFFFF" d="M15.332,35.525c-3.584,0-7.169,0.005-10.753-0.002c-2.764-0.005-4.538-1.726-4.558-4.478
		c-0.026-3.527-0.029-7.054,0.002-10.581c0.023-2.689,1.827-4.436,4.511-4.437c7.255-0.003,14.51-0.003,21.765,0
		c2.598,0.001,4.473,1.788,4.505,4.393c0.044,3.555,0.04,7.112,0.003,10.667c-0.027,2.658-1.877,4.429-4.549,4.435
		C22.616,35.531,18.974,35.525,15.332,35.525z M16.252,19.331c0,4.314,0,8.572,0,12.889c0.686-0.088,1.458,0.417,1.873-0.534
		c0.642,0.597,1.351,0.92,2.199,0.559c0.867-0.368,0.938-1.167,0.944-1.954c0.014-1.863,0.014-3.727-0.013-5.59
		c-0.012-0.79-0.156-1.559-0.979-1.957c-0.84-0.405-1.485,0.006-2.103,0.521c-0.031,0.026-0.102,0.003-0.236,0.003
		c0-1.295,0-2.597,0-3.938C17.351,19.331,16.844,19.331,16.252,19.331z M27.973,27.701c-0.064-1.187-0.032-2.254-0.2-3.288
		c-0.228-1.398-1.134-2.002-2.585-1.914c-1.301,0.079-2.37,0.972-2.42,2.225c-0.075,1.857-0.083,3.722,0.012,5.577
		c0.051,0.986,0.606,1.772,1.64,2.091c2.223,0.686,3.818-0.911,3.397-3.439c-0.525,0-1.055,0-1.615,0
		c-0.043,0.434,0.006,0.867-0.148,1.208c-0.135,0.298-0.511,0.693-0.759,0.679c-0.278-0.016-0.721-0.42-0.758-0.7
		c-0.105-0.777-0.036-1.576-0.036-2.439C25.659,27.701,26.736,27.701,27.973,27.701z M12.696,22.757c0,0.998,0,1.911,0,2.824
		c-0.001,1.346,0.013,2.693-0.009,4.038c-0.009,0.551-0.706,1.243-1.099,1.041c-0.27-0.139-0.484-0.644-0.493-0.991
		c-0.047-1.861-0.022-3.723-0.022-5.585c0-0.444,0-0.888,0-1.303c-0.646,0-1.15,0-1.723,0c0,2.543-0.004,5.029,0.004,7.515
		c0.001,0.341,0.024,0.689,0.097,1.02c0.215,0.985,0.848,1.332,1.781,0.93c0.481-0.208,0.904-0.549,1.389-0.852
		c0.057,0.277,0.112,0.541,0.161,0.777c0.563,0,1.06,0,1.545,0c0-3.176,0-6.281,0-9.415C13.782,22.757,13.304,22.757,12.696,22.757z
		 M7.263,32.201c0-3.688,0-7.336,0-11.085c0.733,0,1.374,0,2.011,0c0-0.66,0-1.217,0-1.783c-2.022,0-3.985,0-5.985,0
		c0,0.598,0,1.151,0,1.755c0.694,0.034,1.334,0.066,2.078,0.103c0,3.731,0,7.373,0,11.01C6.045,32.201,6.609,32.201,7.263,32.201z"
		/>
	<path fill="#FFFFFF" d="M6.699,0.097c0.442,1.622,0.886,3.251,1.33,4.879c0.065,0,0.129-0.001,0.194-0.001
		c0.33-1.34,0.701-2.671,0.972-4.023c0.145-0.72,0.438-1.043,1.19-0.93c0.362,0.054,0.738,0.009,1.273,0.009
		c-1.262,4.526-3.272,8.838-2.317,13.744c-0.563,0-0.895,0-1.228,0c-0.311,0-0.622,0-0.984,0c-0.358-2.35,0.283-4.713-0.528-6.994
		C5.83,4.61,5.222,2.379,4.519,0.097C5.242,0.097,5.907,0.097,6.699,0.097z"/>
	<path fill="#FFFFFF" d="M18.632,3.659c0.597,0,1.166,0,1.859,0c0,0.669,0,1.316,0,1.964c0,1.776-0.015,3.552,0.012,5.328
		c0.006,0.396-0.243,1.092,0.482,1.04c0.552-0.04,1.066-0.411,1.059-1.136c-0.01-1.031-0.002-2.062-0.002-3.093
		c0-1.341,0-2.681,0-4.073c0.651,0,1.234,0,1.864,0c0,3.336,0,6.647,0,10.023c-0.588,0-1.173,0-1.807,0
		c-0.033-0.241-0.069-0.507-0.106-0.782c-0.517,0.305-0.971,0.657-1.485,0.858c-1.032,0.406-1.796-0.028-1.89-1.133
		c-0.107-1.252-0.084-2.515-0.091-3.774c-0.009-1.661,0.009-3.322,0.018-4.983C18.545,3.844,18.582,3.791,18.632,3.659z"/>
	<path fill="#FFFFFF" d="M11.529,8.756c0-0.915-0.042-1.832,0.009-2.744c0.082-1.463,1.041-2.363,2.556-2.48
		c1.354-0.104,2.586,0.747,2.805,2.105c0.158,0.977,0.123,1.99,0.123,2.987c0,1.083,0.044,2.182-0.116,3.246
		c-0.22,1.463-1.394,2.193-3.051,2.078c-1.443-0.1-2.25-0.924-2.324-2.449c-0.044-0.913-0.008-1.829-0.008-2.744
		C11.525,8.756,11.527,8.756,11.529,8.756z M15.018,8.732c0-0.744-0.002-1.488,0.001-2.232c0.002-0.507-0.125-0.936-0.723-0.966
		c-0.607-0.031-0.796,0.415-0.804,0.9c-0.025,1.574-0.054,3.151,0.03,4.72c0.017,0.316,0.522,0.606,0.801,0.908
		c0.231-0.309,0.621-0.598,0.662-0.93C15.084,10.343,15.017,9.533,15.018,8.732z"/>
	<path fill="#FFFFFF" d="M19.48,27.569c0,0.859,0.056,1.724-0.031,2.575c-0.029,0.285-0.421,0.532-0.647,0.797
		c-0.285-0.263-0.806-0.517-0.817-0.791c-0.075-1.773-0.069-3.551-0.005-5.325c0.009-0.257,0.475-0.694,0.727-0.693
		c0.258,0.002,0.707,0.42,0.735,0.691c0.093,0.907,0.035,1.83,0.035,2.746C19.478,27.569,19.479,27.569,19.48,27.569z"/>
	<path fill="#FFFFFF" d="M26.334,26.23c-0.783,0-1.257,0-1.997,0c0.178-0.722,0.299-1.38,0.533-1.996
		c0.04-0.104,0.781-0.12,0.828-0.013C25.959,24.812,26.104,25.454,26.334,26.23z"/>
</g>
</svg>
